<?xml version="1.0" encoding="utf-8"?>
<!-- Generator: Adobe Illustrator 22.1.0, SVG Export Plug-In . SVG Version: 6.00 Build 0)  -->
<svg version="1.1" xmlns="http://www.w3.org/2000/svg" xmlns:xlink="http://www.w3.org/1999/xlink" x="0px" y="0px"
	 viewBox="0 0 264 59.7" style="enable-background:new 0 0 264 59.7;" xml:space="preserve">
<style type="text/css">
	.st0{display:none;}
	.st1{display:inline;fill:none;stroke:#251E1B;stroke-width:5;stroke-miterlimit:10;}
	.st2{display:inline;fill:none;stroke:#251E1B;stroke-width:5;stroke-linecap:round;stroke-miterlimit:10;}
	.st3{display:inline;fill:#251E1B;stroke:#251E1B;stroke-width:5;stroke-linejoin:round;stroke-miterlimit:10;}
	.st4{display:inline;fill:none;stroke:#251E1B;stroke-width:2;stroke-miterlimit:10;}
	.st5{display:inline;fill:none;stroke:#251E1B;stroke-width:4;stroke-linecap:round;stroke-miterlimit:10;}
	.st6{display:inline;fill:none;stroke:#251E1B;stroke-width:2;stroke-linecap:round;stroke-miterlimit:10;}
	.st7{display:inline;fill:#251E1B;stroke:#251E1B;stroke-width:2;stroke-linejoin:round;stroke-miterlimit:10;}
	.st8{display:inline;fill:none;stroke:#251E1B;stroke-width:8;stroke-miterlimit:10;}
	.st9{display:inline;fill:none;stroke:#251E1B;stroke-width:8;stroke-linecap:round;stroke-miterlimit:10;}
	.st10{display:inline;fill:#251E1B;stroke:#251E1B;stroke-width:8;stroke-linejoin:round;stroke-miterlimit:10;}
	.st11{display:inline;fill:none;stroke:#251E1B;stroke-width:0.75;stroke-miterlimit:10;}
	.st12{display:inline;fill:none;stroke:#251E1B;stroke-linecap:round;stroke-miterlimit:10;}
	.st13{display:inline;fill:none;stroke:#251E1B;stroke-width:0.75;stroke-linecap:round;stroke-miterlimit:10;}
	.st14{display:inline;fill:#251E1B;stroke:#251E1B;stroke-width:0.75;stroke-linejoin:round;stroke-miterlimit:10;}
	.st15{display:inline;fill:#251E1B;}
	.st16{display:inline;}
	.st17{fill:#251E1B;}
	.st18{display:inline;fill:none;}
	.st19{font-family:'Poppins-Thin';}
	.st20{font-size:35px;}
	.st21{fill:#F4F4F4;}
	.st22{fill:none;stroke:#F4F4F4;stroke-width:3;stroke-miterlimit:10;}
	.st23{fill:none;stroke:#F4F4F4;stroke-width:3;stroke-linecap:round;stroke-miterlimit:10;}
	.st24{fill:#F4F4F4;stroke:#F4F4F4;stroke-width:3;stroke-linejoin:round;stroke-miterlimit:10;}
</style>
<g id="Logo" class="st0">
	
		<image style="overflow:visible;" width="2048" height="2048" xlink:href="../Untitled_Artwork.jpg"  transform="matrix(6.872096e-02 0 0 6.872096e-02 142.5942 -3.7036)">
	</image>
	<path class="st1" d="M141.3,102.8h-58c-6.6,0-12-5.4-12-12V51.3c0-6.6,5.4-12,12-12h58c6.6,0,12,5.4,12,12v39.5
		C153.3,97.4,147.9,102.8,141.3,102.8z"/>
	<line class="st2" x1="91.5" y1="33.3" x2="91.5" y2="48.7"/>
	<line class="st2" x1="129" y1="33.3" x2="129" y2="48.7"/>
	<line class="st2" x1="82.7" y1="56.7" x2="140.7" y2="56.7"/>
	<line class="st1" x1="132.7" y1="102.8" x2="132.7" y2="80.4"/>
	<line class="st1" x1="153.3" y1="81.3" x2="130.2" y2="81.3"/>
	<line class="st1" x1="151" y1="82.7" x2="132.7" y2="102.8"/>
</g>
<g id="working" class="st0">
	<path class="st1" d="M143.3,86.8h-58c-6.6,0-12-5.4-12-12V35.3c0-6.6,5.4-12,12-12h58c6.6,0,12,5.4,12,12v39.5
		C155.3,81.4,149.9,86.8,143.3,86.8z"/>
	<line class="st2" x1="93.5" y1="17.3" x2="93.5" y2="32.7"/>
	<line class="st2" x1="131" y1="17.3" x2="131" y2="32.7"/>
	<line class="st2" x1="73.3" y1="48.7" x2="100" y2="48.7"/>
	<line class="st2" x1="75" y1="62.7" x2="86.7" y2="62.7"/>
	<line class="st2" x1="95.7" y1="62.7" x2="107.3" y2="62.7"/>
	<line class="st2" x1="75" y1="75.6" x2="88.3" y2="75.6"/>
	<line class="st2" x1="75" y1="37.3" x2="83.8" y2="37.3"/>
	<polyline class="st3" points="132,86.8 132,66.6 155.3,66.6 	"/>
</g>
<g id="workingThin" class="st0">
	<path class="st4" d="M173.7,109.4h-58c-6.6,0-12-5.4-12-12V57.9c0-6.6,5.4-12,12-12h58c6.6,0,12,5.4,12,12v39.5
		C185.7,104,180.3,109.4,173.7,109.4z"/>
	<line class="st5" x1="123.9" y1="39.9" x2="123.9" y2="55.2"/>
	<line class="st5" x1="161.4" y1="39.9" x2="161.4" y2="55.2"/>
	<line class="st6" x1="103.7" y1="71.2" x2="130.4" y2="71.2"/>
	<line class="st6" x1="105.4" y1="85.2" x2="117" y2="85.2"/>
	<line class="st6" x1="126" y1="85.2" x2="137.7" y2="85.2"/>
	<line class="st6" x1="105.4" y1="98.2" x2="118.7" y2="98.2"/>
	<line class="st6" x1="104.4" y1="59.9" x2="113.2" y2="59.9"/>
	<polyline class="st7" points="162.4,109.4 162.4,89.1 185.7,89.1 	"/>
</g>
<g id="workingBold" class="st0">
	<path class="st8" d="M155,90.4H97c-6.6,0-12-5.4-12-12V38.9c0-6.6,5.4-12,12-12h58c6.6,0,12,5.4,12,12v39.5
		C167,85,161.6,90.4,155,90.4z"/>
	<line class="st9" x1="105.2" y1="20.9" x2="105.2" y2="36.2"/>
	<line class="st9" x1="142.7" y1="20.9" x2="142.7" y2="36.2"/>
	<line class="st9" x1="85" y1="52.2" x2="111.7" y2="52.2"/>
	<line class="st9" x1="86.7" y1="66.2" x2="98.3" y2="66.2"/>
	<line class="st9" x1="107.3" y1="66.2" x2="119" y2="66.2"/>
	<line class="st9" x1="86.7" y1="79.2" x2="100" y2="79.2"/>
	<line class="st9" x1="85.7" y1="40.9" x2="94.5" y2="40.9"/>
	<polyline class="st10" points="143.7,90.4 143.7,70.1 167,70.1 	"/>
</g>
<g id="workingThinest" class="st0">
	<path class="st11" d="M196,133.9h-58c-6.6,0-12-5.4-12-12V82.4c0-6.6,5.4-12,12-12h58c6.6,0,12,5.4,12,12v39.5
		C208,128.5,202.6,133.9,196,133.9z"/>
	<line class="st12" x1="146.2" y1="64.4" x2="146.2" y2="79.7"/>
	<line class="st12" x1="183.7" y1="64.4" x2="183.7" y2="79.7"/>
	<line class="st13" x1="126" y1="95.7" x2="152.7" y2="95.7"/>
	<line class="st13" x1="126.7" y1="109.7" x2="138.3" y2="109.7"/>
	<line class="st13" x1="148.3" y1="109.7" x2="160" y2="109.7"/>
	<line class="st13" x1="125.8" y1="122.7" x2="139.2" y2="122.7"/>
	<line class="st13" x1="126.7" y1="84.4" x2="135.5" y2="84.4"/>
	<polyline class="st7" points="184.7,133.9 184.7,113.6 208,113.6 	"/>
</g>
<g id="workingThinMed" class="st0">
	<path class="st11" d="M57,57.7H14.6c-6.6,0-12-5.4-12-12V18.2c0-6.6,5.4-12,12-12H57c6.6,0,12,5.4,12,12v27.5
		C69,52.3,63.6,57.7,57,57.7z"/>
	<line class="st13" x1="18.9" y1="1.3" x2="18.9" y2="13.7"/>
	<line class="st13" x1="49.3" y1="1.3" x2="49.3" y2="13.8"/>
	<line class="st13" x1="2.6" y1="26.7" x2="24.2" y2="26.7"/>
	<line class="st13" x1="3.1" y1="38.1" x2="12.6" y2="38.1"/>
	<line class="st13" x1="20.7" y1="38.1" x2="30.1" y2="38.1"/>
	<line class="st13" x1="2.4" y1="48.6" x2="13.2" y2="48.6"/>
	<line class="st13" x1="3.1" y1="17.5" x2="10.3" y2="17.5"/>
	<polyline class="st14" points="50.1,57.7 50.1,41.2 69,41.2 	"/>
</g>
<g id="finalThin" class="st0">
	<path class="st15" d="M175.2,54.1h-46c-5.4,0-9.8-4.4-9.8-9.8V13c0-5.4,4.4-9.8,9.8-9.8h46c5.4,0,9.8,4.4,9.8,9.8v31.3
		C185,49.7,180.6,54.1,175.2,54.1z M129.3,3.8c-5.1,0-9.2,4.1-9.2,9.2v31.3c0,5.1,4.1,9.2,9.2,9.2h46c5.1,0,9.2-4.1,9.2-9.2V13
		c0-5.1-4.1-9.2-9.2-9.2H129.3z"/>
	<path class="st15" d="M135.7,11.3c-0.2,0-0.4-0.2-0.4-0.4V-1.2c0-0.2,0.2-0.4,0.4-0.4s0.4,0.2,0.4,0.4v12.2
		C136.1,11.1,136,11.3,135.7,11.3z"/>
	<path class="st15" d="M165.5,11.3c-0.2,0-0.4-0.2-0.4-0.4V-1.2c0-0.2,0.2-0.4,0.4-0.4s0.4,0.2,0.4,0.4v12.2
		C165.9,11.1,165.7,11.3,165.5,11.3z"/>
	<path class="st15" d="M140.9,23.9h-21.1c-0.2,0-0.3-0.1-0.3-0.3c0-0.2,0.1-0.3,0.3-0.3h21.1c0.2,0,0.3,0.1,0.3,0.3
		C141.2,23.8,141.1,23.9,140.9,23.9z"/>
	<path class="st15" d="M129.5,35h-9.2c-0.2,0-0.3-0.1-0.3-0.3c0-0.2,0.1-0.3,0.3-0.3h9.2c0.2,0,0.3,0.1,0.3,0.3
		C129.8,34.8,129.7,35,129.5,35z"/>
	<path class="st15" d="M146.7,35h-9.2c-0.2,0-0.3-0.1-0.3-0.3c0-0.2,0.1-0.3,0.3-0.3h9.2c0.2,0,0.3,0.1,0.3,0.3
		C147,34.8,146.9,35,146.7,35z"/>
	<path class="st15" d="M130.2,45.2h-10.6c-0.2,0-0.3-0.1-0.3-0.3c0-0.2,0.1-0.3,0.3-0.3h10.6c0.2,0,0.3,0.1,0.3,0.3
		C130.5,45.1,130.4,45.2,130.2,45.2z"/>
	<path class="st15" d="M127.3,14.9h-7c-0.2,0-0.3-0.1-0.3-0.3s0.1-0.3,0.3-0.3h7c0.2,0,0.3,0.1,0.3,0.3S127.5,14.9,127.3,14.9z"/>
	<g class="st16">
		<polyline class="st17" points="166.3,53.8 166.3,37.8 184.7,37.8 		"/>
		<path class="st17" d="M167,53.8h-1.6V37.8c0-0.4,0.4-0.8,0.8-0.8h18.5v1.6H167V53.8z"/>
	</g>
</g>
<g id="outline" class="st0">
	<path class="st15" d="M81.9,80.3h-8.9c-1.2,0-2.2-1-2.2-2.2v-6.1c0-1.2,1-2.2,2.2-2.2h8.9c1.2,0,2.2,1,2.2,2.2v6.1
		C84.2,79.3,83.2,80.3,81.9,80.3z M73.1,70.6c-0.8,0-1.5,0.7-1.5,1.5v6.1c0,0.8,0.7,1.5,1.5,1.5h8.9c0.8,0,1.5-0.7,1.5-1.5v-6.1
		c0-0.8-0.7-1.5-1.5-1.5H73.1z"/>
	<path class="st15" d="M74.3,72c-0.2,0-0.4-0.2-0.4-0.4v-2.3c0-0.2,0.2-0.4,0.4-0.4s0.4,0.2,0.4,0.4v2.3C74.7,71.9,74.5,72,74.3,72z
		"/>
	<path class="st15" d="M80.1,72c-0.2,0-0.4-0.2-0.4-0.4v-2.4c0-0.2,0.2-0.4,0.4-0.4s0.4,0.2,0.4,0.4v2.4C80.4,71.9,80.3,72,80.1,72z
		"/>
	<path class="st15" d="M75.3,74.5h-4.1c-0.2,0-0.4-0.2-0.4-0.4s0.2-0.4,0.4-0.4h4.1c0.2,0,0.4,0.2,0.4,0.4S75.5,74.5,75.3,74.5z"/>
	<path class="st15" d="M73.3,76.6h-1.8c-0.2,0-0.4-0.2-0.4-0.4s0.2-0.4,0.4-0.4h1.8c0.2,0,0.4,0.2,0.4,0.4S73.5,76.6,73.3,76.6z"/>
	<path class="st15" d="M76.4,76.6h-1.8c-0.2,0-0.4-0.2-0.4-0.4s0.2-0.4,0.4-0.4h1.8c0.2,0,0.4,0.2,0.4,0.4S76.6,76.6,76.4,76.6z"/>
	<path class="st15" d="M73.5,78.6h-2c-0.2,0-0.4-0.2-0.4-0.4s0.2-0.4,0.4-0.4h2c0.2,0,0.4,0.2,0.4,0.4S73.7,78.6,73.5,78.6z"/>
	<path class="st15" d="M72.8,72.7h-1.4c-0.2,0-0.4-0.2-0.4-0.4c0-0.2,0.2-0.4,0.4-0.4h1.4c0.2,0,0.4,0.2,0.4,0.4
		C73.2,72.6,73,72.7,72.8,72.7z"/>
	<g class="st16">
		<polyline class="st17" points="80.2,80 80.2,76.8 83.8,76.8 		"/>
		<path class="st17" d="M80.6,80h-0.8v-3.1c0-0.2,0.2-0.4,0.4-0.4h3.6v0.8h-3.2V80z"/>
	</g>
	<path class="st15" d="M168.3,86.7H146c-2.8,0-5-2.2-5-5V66.5c0-2.8,2.2-5,5-5h22.3c2.8,0,5,2.2,5,5v15.2
		C173.3,84.4,171,86.7,168.3,86.7z M146,62.3c-2.3,0-4.2,1.9-4.2,4.2v15.2c0,2.3,1.9,4.2,4.2,4.2h22.3c2.3,0,4.2-1.9,4.2-4.2V66.5
		c0-2.3-1.9-4.2-4.2-4.2H146z"/>
	<path class="st15" d="M149.1,66.3c-0.4,0-0.8-0.3-0.8-0.8v-5.9c0-0.4,0.3-0.8,0.8-0.8c0.4,0,0.8,0.3,0.8,0.8v5.9
		C149.9,65.9,149.6,66.3,149.1,66.3z"/>
	<path class="st15" d="M163.5,66.3c-0.4,0-0.8-0.3-0.8-0.8v-5.9c0-0.4,0.3-0.8,0.8-0.8c0.4,0,0.8,0.3,0.8,0.8v5.9
		C164.3,65.9,164,66.3,163.5,66.3z"/>
	<path class="st15" d="M151.6,72h-10.2c-0.2,0-0.4-0.2-0.4-0.4c0-0.2,0.2-0.4,0.4-0.4h10.2c0.2,0,0.4,0.2,0.4,0.4
		C152,71.8,151.8,72,151.6,72z"/>
	<path class="st15" d="M146.5,77.4H142c-0.2,0-0.4-0.2-0.4-0.4c0-0.2,0.2-0.4,0.4-0.4h4.5c0.2,0,0.4,0.2,0.4,0.4
		C146.9,77.2,146.7,77.4,146.5,77.4z"/>
	<path class="st15" d="M154.4,77.4H150c-0.2,0-0.4-0.2-0.4-0.4c0-0.2,0.2-0.4,0.4-0.4h4.5c0.2,0,0.4,0.2,0.4,0.4
		C154.8,77.2,154.6,77.4,154.4,77.4z"/>
	<path class="st15" d="M147.1,82.4H142c-0.2,0-0.4-0.2-0.4-0.4s0.2-0.4,0.4-0.4h5.1c0.2,0,0.4,0.2,0.4,0.4S147.4,82.4,147.1,82.4z"
		/>
	<path class="st15" d="M145,67.7h-3.4c-0.2,0-0.4-0.2-0.4-0.4s0.2-0.4,0.4-0.4h3.4c0.2,0,0.4,0.2,0.4,0.4S145.2,67.7,145,67.7z"/>
	<g class="st16">
		<polyline class="st17" points="163.9,86.3 163.9,78.5 172.9,78.5 		"/>
		<path class="st17" d="M164.3,86.3h-0.8v-7.8c0-0.2,0.2-0.4,0.4-0.4h9v0.8h-8.6V86.3z"/>
	</g>
	<path class="st15" d="M210.3,117.6h-24.1c-3,0-5.4-2.4-5.4-5.4V95.8c0-3,2.4-5.4,5.4-5.4h24.1c3,0,5.4,2.4,5.4,5.4v16.4
		C215.7,115.2,213.3,117.6,210.3,117.6z M186.2,91.2c-2.5,0-4.6,2-4.6,4.6v16.4c0,2.5,2,4.6,4.6,4.6h24.1c2.5,0,4.6-2,4.6-4.6V95.8
		c0-2.5-2-4.6-4.6-4.6H186.2z"/>
	<path class="st15" d="M189.6,95.5c-0.5,0-0.8-0.4-0.8-0.8v-6.4c0-0.5,0.4-0.8,0.8-0.8c0.5,0,0.8,0.4,0.8,0.8v6.4
		C190.4,95.2,190.1,95.5,189.6,95.5z"/>
	<path class="st15" d="M205.2,95.5c-0.5,0-0.8-0.4-0.8-0.8v-6.4c0-0.5,0.4-0.8,0.8-0.8c0.5,0,0.8,0.4,0.8,0.8v6.4
		C206,95.2,205.6,95.5,205.2,95.5z"/>
	<path class="st15" d="M192.3,101.8h-11.1c-0.2,0-0.4-0.2-0.4-0.4c0-0.2,0.2-0.4,0.4-0.4h11.1c0.2,0,0.4,0.2,0.4,0.4
		C192.7,101.6,192.5,101.8,192.3,101.8z"/>
	<path class="st15" d="M186.8,107.6h-4.8c-0.2,0-0.4-0.2-0.4-0.4s0.2-0.4,0.4-0.4h4.8c0.2,0,0.4,0.2,0.4,0.4S187,107.6,186.8,107.6z
		"/>
	<path class="st15" d="M195.3,107.6h-4.8c-0.2,0-0.4-0.2-0.4-0.4s0.2-0.4,0.4-0.4h4.8c0.2,0,0.4,0.2,0.4,0.4
		S195.6,107.6,195.3,107.6z"/>
	<path class="st15" d="M187.5,112.9h-5.5c-0.2,0-0.4-0.2-0.4-0.4s0.2-0.4,0.4-0.4h5.5c0.2,0,0.4,0.2,0.4,0.4
		S187.7,112.9,187.5,112.9z"/>
	<path class="st15" d="M185.2,97h-3.7c-0.2,0-0.4-0.2-0.4-0.4c0-0.2,0.2-0.4,0.4-0.4h3.7c0.2,0,0.4,0.2,0.4,0.4
		C185.6,96.9,185.4,97,185.2,97z"/>
	<g class="st16">
		<polyline class="st17" points="205.6,117.2 205.6,108.8 215.3,108.8 		"/>
		<path class="st17" d="M206,117.2h-0.8v-8.4c0-0.2,0.2-0.4,0.4-0.4h9.7v0.8H206V117.2z"/>
	</g>
</g>
<g id="Skema" class="st0">
	<rect x="97.5" y="48.1" class="st18" width="122" height="28.7"/>
	<text transform="matrix(1 0 0 1 97.5134 74.0106)" class="st16 st19 st20">SKEMA</text>
	<path class="st15" d="M87.3,76.8H60.6c-3.1,0-5.7-2.6-5.7-5.7V52.9c0-3.1,2.6-5.7,5.7-5.7h26.7c3.1,0,5.7,2.6,5.7,5.7v18.2
		C93,74.2,90.5,76.8,87.3,76.8z M60.6,47.5c-3,0-5.4,2.4-5.4,5.4v18.2c0,3,2.4,5.4,5.4,5.4h26.7c3,0,5.4-2.4,5.4-5.4V52.9
		c0-3-2.4-5.4-5.4-5.4H60.6z"/>
	<path class="st15" d="M64.4,51.9c-0.1,0-0.2-0.1-0.2-0.2v-7.1c0-0.1,0.1-0.2,0.2-0.2c0.1,0,0.2,0.1,0.2,0.2v7.1
		C64.6,51.8,64.5,51.9,64.4,51.9z"/>
	<path class="st15" d="M81.7,51.9c-0.1,0-0.2-0.1-0.2-0.2v-7.1c0-0.1,0.1-0.2,0.2-0.2s0.2,0.1,0.2,0.2v7.1
		C81.9,51.8,81.8,51.9,81.7,51.9z"/>
	<path class="st15" d="M67.4,59.2H55.1c-0.1,0-0.2-0.1-0.2-0.2s0.1-0.2,0.2-0.2h12.3c0.1,0,0.2,0.1,0.2,0.2S67.5,59.2,67.4,59.2z"/>
	<path class="st15" d="M60.8,65.7h-5.4c-0.1,0-0.2-0.1-0.2-0.2s0.1-0.2,0.2-0.2h5.4c0.1,0,0.2,0.1,0.2,0.2S60.9,65.7,60.8,65.7z"/>
	<path class="st15" d="M70.8,65.7h-5.4c-0.1,0-0.2-0.1-0.2-0.2s0.1-0.2,0.2-0.2h5.4c0.1,0,0.2,0.1,0.2,0.2S70.9,65.7,70.8,65.7z"/>
	<path class="st15" d="M61.2,71.6H55c-0.1,0-0.2-0.1-0.2-0.2s0.1-0.2,0.2-0.2h6.1c0.1,0,0.2,0.1,0.2,0.2S61.3,71.6,61.2,71.6z"/>
	<path class="st15" d="M59.5,54h-4.1c-0.1,0-0.2-0.1-0.2-0.2s0.1-0.2,0.2-0.2h4.1c0.1,0,0.2,0.1,0.2,0.2S59.6,54,59.5,54z"/>
	<g class="st16">
		<polyline class="st17" points="82.1,76.6 82.1,67.3 92.9,67.3 		"/>
		<path class="st17" d="M82.6,76.6h-0.9v-9.3c0-0.3,0.2-0.5,0.5-0.5h10.7v0.9H82.6V76.6z"/>
	</g>
</g>
<g id="svgWeb">
	<g>
		<path class="st21" d="M105.8,48c-0.9,1.7-2.3,3.1-4.2,4.2c-1.9,1.1-4.2,1.6-7,1.6c-2.7,0-5.2-0.5-7.3-1.5c-2.1-1-3.8-2.4-5.1-4.1
			c-1.3-1.7-2-3.7-2.2-5.9h4.5c0.2,1.2,0.6,2.5,1.4,3.7c0.8,1.2,1.9,2.3,3.3,3.1c1.4,0.8,3.2,1.2,5.2,1.2c2.7,0,4.7-0.7,6.2-2.2
			c1.4-1.4,2.1-3.3,2.1-5.5c0-1.9-0.5-3.4-1.4-4.6c-0.9-1.2-2.1-2.1-3.5-2.7c-1.4-0.6-3.3-1.3-5.7-2.1c-2.6-0.8-4.8-1.7-6.4-2.4
			c-1.6-0.8-3-1.9-4.1-3.5c-1.1-1.5-1.7-3.6-1.7-6.1c0-3.2,1.1-5.8,3.4-7.8c2.2-2,5.3-3,9.3-3c4,0,7.2,1,9.5,3
			c2.3,2,3.7,4.4,4.2,7.3h-4.5c-0.4-1.8-1.3-3.4-2.9-4.8c-1.5-1.4-3.7-2.1-6.4-2.1c-2.5,0-4.5,0.6-6,1.9c-1.5,1.3-2.2,3.1-2.2,5.4
			c0,1.8,0.5,3.3,1.4,4.4c0.9,1.1,2.1,2,3.4,2.6c1.3,0.6,3.2,1.3,5.5,2c2.7,0.8,4.9,1.7,6.5,2.5c1.7,0.8,3.1,2,4.2,3.6
			c1.2,1.6,1.7,3.7,1.7,6.4C107.2,44.5,106.7,46.3,105.8,48z"/>
		<path class="st21" d="M122.9,32l20,21.3h-5.2l-18.5-19.9v19.9h-4.3V10.9h4.3v19.9l18.5-19.9h5.2L122.9,32z"/>
		<path class="st21" d="M152.8,14.3v16h16.6v3.3h-16.6v16.2h18.4v3.5h-22.6V10.9h22.6v3.4H152.8z"/>
		<path class="st21" d="M219.7,11.8v41.5h-4.2V18.6l-14.4,34.8h-3.8l-14.4-34.7v34.7h-4.3V11.8h5l15.7,36.3l15.5-36.3H219.7z"/>
		<path class="st21" d="M253.4,43H234l-3.9,10.4h-4.5l15.7-41.5h4.8l15.7,41.5h-4.6L253.4,43z M252.1,39.6l-8.4-22.9l-8.5,22.9
			H252.1z"/>
	</g>
	<path class="st22" d="M53.6,56.5h-39c-6.6,0-12-5.4-12-12V19.8c0-6.6,5.4-12,12-12h39c6.6,0,12,5.4,12,12v24.8
		C65.6,51.1,60.2,56.5,53.6,56.5z"/>
	<line class="st23" x1="18.1" y1="3.2" x2="18.1" y2="14.9"/>
	<line class="st23" x1="46.9" y1="3.2" x2="46.9" y2="14.9"/>
	<line class="st23" x1="2.6" y1="27.2" x2="23.1" y2="27.2"/>
	<line class="st23" x1="3.1" y1="38" x2="12.1" y2="38"/>
	<line class="st23" x1="19.8" y1="38" x2="28.7" y2="38"/>
	<line class="st23" x1="2.5" y1="47.9" x2="12.7" y2="47.9"/>
	<line class="st23" x1="3.1" y1="18.5" x2="9.9" y2="18.5"/>
	<polyline class="st24" points="47.7,56.5 47.7,40.9 65.6,40.9 	"/>
</g>
</svg>
